<svg fill="none" height="24" viewBox="0 0 24 24" width="24" xmlns="http://www.w3.org/2000/svg"><path clip-rule="evenodd" d="m7.25007 2.38782c1.29871-.28862 2.87423-.38782 4.74993-.38782s3.4512.0992 4.7499.38782c1.3101.29115 2.3989.78818 3.2365 1.62576s1.3346 1.92644 1.6258 3.23649c.2886 1.29871.3878 2.87423.3878 4.74993s-.0992 3.4512-.3878 4.7499c-.2912 1.3101-.7882 2.3989-1.6258 3.2365s-1.9264 1.3346-3.2365 1.6258c-1.2987.2886-2.8742.3878-4.7499.3878s-3.45122-.0992-4.74993-.3878c-1.31005-.2912-2.39891-.7882-3.23649-1.6258s-1.33461-1.9264-1.62576-3.2365c-.28862-1.2987-.38782-2.8742-.38782-4.7499s.0992-3.45122.38782-4.74993c.29115-1.31005.78818-2.39891 1.62576-3.23649s1.92644-1.33461 3.23649-1.62576zm4.74993 3.61218c-2.20914 0-4 1.79086-4 4 0 2.2091 1.79086 4 4 4 2.2091 0 4-1.7909 4-4 0-2.20914-1.7909-4-4-4zm6.3775 11.2942c.3528.5753.228 1.3358-.3406 1.6993-.517.3306-1.1211.533-1.721.6663-1.0837.2408-2.486.3402-4.3161.3402-1.83 0-3.23236-.0994-4.31599-.3402-.58865-.1308-1.18176-.3279-1.6925-.6478-.57884-.3625-.70608-1.1334-.34457-1.7129.41629-.6673.99002-1.1916 1.76208-1.5647 1.1714-.566 2.70688-.7344 4.59078-.7344 1.8775 0 3.4113.1548 4.5811.7047.792.3723 1.3765.9042 1.7968 1.5895z" fill="#323232" fill-rule="evenodd"/></svg>